<svg width="16" height="16" viewBox="0 0 16 16" fill="none" xmlns="http://www.w3.org/2000/svg">
<mask id="mask0_115_390" style="mask-type:alpha" maskUnits="userSpaceOnUse" x="0" y="0" width="16" height="16">
<rect y="16" width="16" height="16" transform="rotate(-90 0 16)" fill="#D9D9D9"/>
</mask>
<g mask="url(#mask0_115_390)">
<path d="M10.2 7.9834C10.2 8.10562 10.1805 8.21673 10.1416 8.31673C10.1028 8.41673 10.0389 8.51118 9.94998 8.60006L6.81665 11.7334C6.64998 11.9001 6.44442 11.9834 6.19998 11.9834C5.95554 11.9834 5.74998 11.9001 5.58331 11.7334C5.41665 11.5667 5.33331 11.3612 5.33331 11.1167C5.33331 10.8723 5.41665 10.6667 5.58331 10.5001L8.09998 7.9834L5.58331 5.46673C5.41665 5.30006 5.33331 5.09451 5.33331 4.85007C5.33331 4.60562 5.41665 4.40006 5.58331 4.2334C5.74998 4.06673 5.95553 3.9834 6.19998 3.9834C6.44442 3.9834 6.64998 4.06673 6.81665 4.2334L9.94998 7.36673C10.0389 7.45562 10.1028 7.55006 10.1416 7.65006C10.1805 7.75006 10.2 7.86118 10.2 7.9834Z" fill="#C6DEB2"/>
</g>
</svg>
